<svg id="Layer_1" data-name="Layer 1" xmlns="http://www.w3.org/2000/svg" xmlns:xlink="http://www.w3.org/1999/xlink" viewBox="0 0 862.84 182.11"><defs><style>.cls-1,.cls-2{fill:none;}.cls-2{stroke:#fff;stroke-miterlimit:10;stroke-width:1.13px;}.cls-3{clip-path:url(#clip-path);}.cls-4,.cls-5,.cls-6,.cls-7,.cls-8{isolation:isolate;}.cls-5,.cls-6,.cls-7,.cls-8{font-size:27.05px;fill:#fff;}.cls-5,.cls-6{font-family:Montserrat-Light, Montserrat;font-weight:300;}.cls-5,.cls-8{letter-spacing:-0.01em;}.cls-7,.cls-8{font-family:Montserrat-SemiBold, Montserrat;font-weight:600;}.cls-9{fill:#023e55;fill-rule:evenodd;}</style><clipPath id="clip-path" transform="translate(-11.19 -25.72)"><rect class="cls-1" x="11.21" y="3.35" width="868.7" height="213.86"/></clipPath></defs><title>logo</title><polygon class="cls-2" points="367.92 24.79 352.5 71.76 337.36 24.79 323.16 24.79 307.51 71.35 292.55 24.79 276.68 24.79 298.45 91.05 314.82 91.05 329.87 46.2 344.44 91.05 360.93 91.05 382.57 24.79 367.92 24.79"/><g class="cls-3"><path class="cls-2" d="M421,76.24a12.6,12.6,0,0,1,8.34,2.89,12.33,12.33,0,0,1,4.15,7.75H408.37a12.22,12.22,0,0,1,4.06-7.8A12.84,12.84,0,0,1,421,76.24Zm26.42,15.29a27.21,27.21,0,0,0-3.47-14,23.46,23.46,0,0,0-9.52-9.24,27.87,27.87,0,0,0-13.52-3.2A29,29,0,0,0,407,68.45a25.2,25.2,0,0,0-9.74,9.37,27.34,27.34,0,0,0,0,27.05,24.44,24.44,0,0,0,10.24,9.29,33.18,33.18,0,0,0,15.23,3.38A26.3,26.3,0,0,0,444,109.29l-7.85-8.52a16.73,16.73,0,0,1-5.72,3.74,19.23,19.23,0,0,1-7,1.22,16.75,16.75,0,0,1-9.69-2.75,12.25,12.25,0,0,1-4.91-7.49h38.54C447.28,93,447.37,91.71,447.37,91.53Z" transform="translate(-11.19 -25.72)"/><path class="cls-2" d="M484.78,105.41a12.26,12.26,0,0,1-9.33-3.83A14.28,14.28,0,0,1,471.8,91.3,14.38,14.38,0,0,1,475.45,81a13.3,13.3,0,0,1,18.67,0,14.52,14.52,0,0,1,3.6,10.28,14.44,14.44,0,0,1-3.6,10.28A12.27,12.27,0,0,1,484.78,105.41Zm2.53-40.3A19.66,19.66,0,0,0,472,71.24V46.54H457.24v70.23h14.07v-5.86a19.64,19.64,0,0,0,16,6.63,26.24,26.24,0,0,0,12.94-3.25,23.91,23.91,0,0,0,9-9,27.66,27.66,0,0,0,3.29-13.8,27.47,27.47,0,0,0-3.29-13.75,23.29,23.29,0,0,0-9-9A26.11,26.11,0,0,0,487.31,65.11Z" transform="translate(-11.19 -25.72)"/><path class="cls-2" d="M545.37,117.9a39.28,39.28,0,0,0,15.42-2.71,21.48,21.48,0,0,0,9.42-7.43,18.13,18.13,0,0,0,3.16-10.37,15.24,15.24,0,0,0-3.43-10.51,20.57,20.57,0,0,0-8.29-5.68,101,101,0,0,0-12.4-3.6,55.63,55.63,0,0,1-10.87-3.29,5.43,5.43,0,0,1-3.56-5,6.41,6.41,0,0,1,3.11-5.5,17.16,17.16,0,0,1,9.52-2.08,36.94,36.94,0,0,1,18.25,5.23l4.51-11.67a35.56,35.56,0,0,0-10.59-4.51,49.38,49.38,0,0,0-12.4-1.53A38,38,0,0,0,531.85,52a20.87,20.87,0,0,0-9.42,7.43,18.56,18.56,0,0,0-3.16,10.46,15.62,15.62,0,0,0,3.47,10.6,19.76,19.76,0,0,0,8.3,5.77,106.4,106.4,0,0,0,12.39,3.6c3.29.77,5.86,1.45,7.8,2.08A13.81,13.81,0,0,1,556,94.41a4.82,4.82,0,0,1,1.84,3.92,5.75,5.75,0,0,1-3.11,5.14,18.59,18.59,0,0,1-9.64,1.94,38.25,38.25,0,0,1-11.77-1.89,35.45,35.45,0,0,1-10.1-5L518,110.05a34.78,34.78,0,0,0,11.77,5.55A53.79,53.79,0,0,0,545.37,117.9Z" transform="translate(-11.19 -25.72)"/><path class="cls-2" d="M618.36,65.83l-14.43,34.58L589.64,65.83H574.4l22.05,51.35v.45a11.92,11.92,0,0,1-3.38,4.87,7.82,7.82,0,0,1-4.92,1.48,11.76,11.76,0,0,1-4.5-.85,12.57,12.57,0,0,1-3.93-2.39l-5.41,10.55a17.14,17.14,0,0,0,6.36,3.38,26.09,26.09,0,0,0,7.84,1.22A21.19,21.19,0,0,0,601,132.32a26.65,26.65,0,0,0,8.65-12.39l23-54.1Z" transform="translate(-11.19 -25.72)"/><path class="cls-2" d="M655,117.54a37.22,37.22,0,0,0,12.94-2,18.41,18.41,0,0,0,8.3-5.73,13.53,13.53,0,0,0,2.84-8.43,12.23,12.23,0,0,0-2.93-8.7,15.85,15.85,0,0,0-7-4.5A86.69,86.69,0,0,0,659,85.94a46.47,46.47,0,0,1-8.16-1.81,3.41,3.41,0,0,1-2.57-3.33,3.84,3.84,0,0,1,2.39-3.38,14.48,14.48,0,0,1,7.07-1.36,29.55,29.55,0,0,1,14.7,3.79l4.91-10.5a30.5,30.5,0,0,0-9-3.25,48.83,48.83,0,0,0-10.78-1.17A34.56,34.56,0,0,0,644.91,67a18.39,18.39,0,0,0-8.16,5.82A14,14,0,0,0,634,81.38a12.36,12.36,0,0,0,3,9A16.11,16.11,0,0,0,644,94.91a75.67,75.67,0,0,0,10.32,2.16,39,39,0,0,1,7.85,1.62,3.3,3.3,0,0,1,2.57,3.11c0,3.12-3.12,4.51-9.38,4.51A34.89,34.89,0,0,1,645.9,105a31.94,31.94,0,0,1-8.25-3.56L632.74,112a32.37,32.37,0,0,0,9.65,3.93A48.07,48.07,0,0,0,655,117.54Z" transform="translate(-11.19 -25.72)"/><path class="cls-2" d="M717,103.92a9.58,9.58,0,0,1-6,1.9,6.07,6.07,0,0,1-4.51-1.76,6.87,6.87,0,0,1-1.67-5V78.36h12.67V67H704.82V54.61H690V67h-7.85V78.36H690V99.28a17.73,17.73,0,0,0,5,13.52,19.82,19.82,0,0,0,14.07,4.51,26.77,26.77,0,0,0,6.67-.81,15.72,15.72,0,0,0,5.37-2.39Z" transform="translate(-11.19 -25.72)"/><path class="cls-2" d="M751.16,76.24a12.71,12.71,0,0,1,8.34,2.89,12.33,12.33,0,0,1,4.15,7.75H738.59a12.15,12.15,0,0,1,4.14-7.8A12.72,12.72,0,0,1,751.16,76.24Zm26.42,15.29a27.64,27.64,0,0,0-3.47-14,23.44,23.44,0,0,0-9.51-9.24,28.17,28.17,0,0,0-13.53-3.2,28.94,28.94,0,0,0-13.88,3.34,24.59,24.59,0,0,0-9.74,9.37,27.35,27.35,0,0,0,0,27.05,24.44,24.44,0,0,0,10.24,9.29,32.93,32.93,0,0,0,15.23,3.38,26.39,26.39,0,0,0,21-8.25l-7.84-8.52a17.17,17.17,0,0,1-5.73,3.74,19.2,19.2,0,0,1-7.08,1.22,16.42,16.42,0,0,1-9.64-2.75,11.87,11.87,0,0,1-4.92-7.49h38.5A28.38,28.38,0,0,0,777.58,91.53Z" transform="translate(-11.19 -25.72)"/><path class="cls-2" d="M852.64,65.11a25.11,25.11,0,0,0-10.46,2.16,21,21,0,0,0-7.89,6.13,17.16,17.16,0,0,0-7.12-6.17,21.43,21.43,0,0,0-9.74-2.12,23.54,23.54,0,0,0-9,1.67,18.76,18.76,0,0,0-6.95,5V65.83H787.36v50.94h14.79V91.21a14.31,14.31,0,0,1,3-10,10.36,10.36,0,0,1,8.12-3.38c6.44,0,9.69,4,9.69,12V117h14.74V91.21a14.32,14.32,0,0,1,3.06-10A10.38,10.38,0,0,1,849,77.87a9,9,0,0,1,7.17,3,13.93,13.93,0,0,1,2.48,9v27.05h14.78V87.6A22.93,22.93,0,0,0,867.74,71,20.43,20.43,0,0,0,852.64,65.11Z" transform="translate(-11.19 -25.72)"/></g><g class="cls-4"><text class="cls-5" transform="translate(274.56 140.64)">W</text><text class="cls-6" transform="translate(303.86 140.64)">EB</text></g><g class="cls-4"><text class="cls-7" transform="translate(349.26 140.64)">D</text><text class="cls-8" transform="translate(371.62 140.64)">E</text><text class="cls-8" transform="translate(389.47 140.64)">V</text><text class="cls-7" transform="translate(408.81 140.64)">E</text><text class="cls-8" transform="translate(426.93 140.64)">L</text><text class="cls-7" transform="translate(442.8 140.64)">O</text><text class="cls-8" transform="translate(465.61 140.64)">P</text><text class="cls-7" transform="translate(484.95 140.64)">MENT</text></g><g class="cls-4"><text class="cls-6" transform="translate(567.04 140.64)"><tspan xml:space="preserve"> &amp; </tspan></text><text class="cls-5" transform="translate(598.64 140.64)">W</text><text class="cls-6" transform="translate(627.99 140.64)">EB</text></g><text class="cls-7" transform="translate(666.35 140.64)">DESIGN</text><path class="cls-9" d="M120.58,34.46a1.45,1.45,0,0,1,2,1.47V197.64a1.44,1.44,0,0,1-2,1.45L12,162.67c-1.11-.37-1.13-.31,0,.14l108.64,44.68a6.08,6.08,0,0,0,4,0l108.63-44.14a3.44,3.44,0,0,0,2-2.94V73.71a3.46,3.46,0,0,0-2-2.95L124.58,26.06a6,6,0,0,0-4,0L12,70.21c-1.09.44-1.07.5.05.13ZM105.8,181.25a1.33,1.33,0,0,1-2,1.33l-75-30.49a3.42,3.42,0,0,1-2-2.93V84.42a3.43,3.43,0,0,1,2-2.94l14.82-6v64.49l14.29,5.8V69.6l16.8-6.83v89.81l12.32,5a1.33,1.33,0,0,0,2-1.33V59.1a3.42,3.42,0,0,1,2-2.93l12.85-5.23a1.33,1.33,0,0,1,2,1.33ZM216.26,108.5a2.14,2.14,0,0,1,2.13,2.13V149a3.42,3.42,0,0,1-2,2.93l-75,30.52a1.33,1.33,0,0,1-2-1.33V144a2.15,2.15,0,0,1,2.14-2.13h12.53A2.14,2.14,0,0,1,156.2,144v12.26a1.34,1.34,0,0,0,2,1.34l41.68-16.9a3.44,3.44,0,0,0,2-2.94V127.18a2.14,2.14,0,0,0-2.13-2.13H141.54a2.15,2.15,0,0,1-2.14-2.14V52.16a1.34,1.34,0,0,1,2-1.33l75,30.54a3.44,3.44,0,0,1,2,2.94v5.25a2.14,2.14,0,0,1-2.13,2.14h-17a13.05,13.05,0,0,1-4.11-.81l-37-15.16a1.33,1.33,0,0,0-2,1.33v29.3a2.15,2.15,0,0,0,2.14,2.14Z" transform="translate(-11.19 -25.72)"/></svg>