<svg id="Layer_1" data-name="Layer 1" xmlns="http://www.w3.org/2000/svg" viewBox="0 0 512.3 484.06"><defs><style>.cls-1{fill:#ed8936;}.cls-2{fill:#98a1b3;}.cls-3{fill:#fff;}.cls-4{fill:#f5737f;}.cls-5{fill:#d3d7df;}.cls-6{fill:#e1e3e9;}</style></defs><title>video</title><path class="cls-1" d="M418,275.44l60-35.3a16,16,0,0,1,24,13.75V446.11a16,16,0,0,1-24,13.75l-60-35.3Z" transform="translate(0.3 0.06)"/><path class="cls-2" d="M418,418H378V282h40Z" transform="translate(0.3 0.06)"/><path class="cls-3" d="M34,226H354a24,24,0,0,1,24,24V450a24,24,0,0,1-24,24H34a24,24,0,0,1-24-24h0V250A24,24,0,0,1,34,226Z" transform="translate(0.3 0.06)"/><circle class="cls-4" cx="306.3" cy="298.06" r="24"/><circle class="cls-1" cx="90.3" cy="146.06" r="80"/><circle class="cls-1" cx="276.24" cy="118.06" r="108"/><circle class="cls-5" cx="276.24" cy="118.06" r="68"/><circle class="cls-5" cx="90.3" cy="146.06" r="36"/><path class="cls-6" d="M64,330H238v96H64Z" transform="translate(0.3 0.06)"/><path class="cls-1" d="M282,370h48v48H282Z" transform="translate(0.3 0.06)"/><path d="M498.93,231.36a25.66,25.66,0,0,0-26,.17l-60,35.29a9.93,9.93,0,0,0-4.3,5.18H388V250a34,34,0,0,0-34-34H341.6A118,118,0,1,0,161.09,90.88,90,90,0,1,0,33.52,216,34,34,0,0,0,0,250V450a34,34,0,0,0,34,34H149a10,10,0,0,0,0-20H34a14,14,0,0,1-14-14V250a14,14,0,0,1,14-14H354a14,14,0,0,1,14,14V450a14,14,0,0,1-14,14H239a10,10,0,0,0,0,20H354a34,34,0,0,0,34-34V428h20.63a9.93,9.93,0,0,0,4.3,5.18l60,35.29A25.94,25.94,0,0,0,512,446.11V253.89a25.68,25.68,0,0,0-13.07-22.53ZM275.94,20a98,98,0,1,1-98,98A98,98,0,0,1,275.94,20ZM20,146a70,70,0,1,1,70,70A70,70,0,0,1,20,146Zm126.5,70a90.34,90.34,0,0,0,27.72-38.27A118.77,118.77,0,0,0,210.29,216ZM388,292h20V408H388ZM492,446.11a6,6,0,0,1-9,5.13l-55-32.39V281.16l55-32.4a6,6,0,0,1,8.16,2.06,6,6,0,0,1,.84,3.07Z" transform="translate(0.3 0.06)"/><path d="M306,332a34,34,0,1,0-34-34A34,34,0,0,0,306,332Zm0-48a14,14,0,1,1-14,14A14,14,0,0,1,306,284Z" transform="translate(0.3 0.06)"/><path d="M194,464a10,10,0,1,0,7.07,2.93A10,10,0,0,0,194,464Z" transform="translate(0.3 0.06)"/><path d="M275.94,196a78,78,0,1,0-78-78A78,78,0,0,0,275.94,196Zm0-136a58,58,0,1,1-58,58A58,58,0,0,1,275.94,60Z" transform="translate(0.3 0.06)"/><path d="M275.94,100.67a10,10,0,1,0-7.07-2.93A10,10,0,0,0,275.94,100.67Z" transform="translate(0.3 0.06)"/><path d="M275.94,155.33a10,10,0,1,0-7.07-2.93A10,10,0,0,0,275.94,155.33Z" transform="translate(0.3 0.06)"/><path d="M303.28,128a10,10,0,1,0-7.07-2.93A10,10,0,0,0,303.28,128Z" transform="translate(0.3 0.06)"/><path d="M248.61,128a10,10,0,1,0-7.07-2.93A10,10,0,0,0,248.61,128Z" transform="translate(0.3 0.06)"/><path d="M90,192a46,46,0,1,0-46-46A46,46,0,0,0,90,192Zm0-72a26,26,0,1,1-26,26A26,26,0,0,1,90,120Z" transform="translate(0.3 0.06)"/><path d="M248,426V330a10,10,0,0,0-10-10H64a10,10,0,0,0-10,10v96a10,10,0,0,0,10,10H238A10,10,0,0,0,248,426Zm-20-10H74V340H228Z" transform="translate(0.3 0.06)"/><path d="M272,418a10,10,0,0,0,10,10h48a10,10,0,0,0,10-10V370a10,10,0,0,0-10-10H282a10,10,0,0,0-10,10Zm20-38h28v28H292Z" transform="translate(0.3 0.06)"/></svg>