<?xml version="1.0" encoding="utf-8"?>
<!-- Generator: Adobe Illustrator 23.0.1, SVG Export Plug-In . SVG Version: 6.00 Build 0)  -->
<svg version="1.1" id="Layer_1" xmlns="http://www.w3.org/2000/svg" xmlns:xlink="http://www.w3.org/1999/xlink" x="0px" y="0px"
	 viewBox="0 0 512 484" style="enable-background:new 0 0 512 484;" xml:space="preserve">
<style type="text/css">
	.st0{fill:#ED8936;}
	.st1{fill:#98A1B3;}
	.st2{fill:#FFFFFF;}
	.st3{fill:#F5737F;}
	.st4{fill:#D3D7DF;}
	.st5{fill:#E1E3E9;}
</style>
<title>video</title>
<path class="st0" d="M418,275.4l60-35.3c7.7-4.4,17.4-1.8,21.9,5.9c1.4,2.4,2.1,5.1,2.1,7.9v192.2c-0.1,8.8-7.3,16-16.1,15.9
	c-2.8,0-5.5-0.8-7.9-2.1l-60-35.3V275.4z"/>
<path class="st1" d="M418,418h-40V282h40V418z"/>
<path class="st2" d="M34,226h320c13.3,0,24,10.7,24,24v200c0,13.3-10.7,24-24,24l0,0H34c-13.3,0-24-10.7-24-24l0,0V250
	C10,236.7,20.7,226,34,226z"/>
<circle class="st3" cx="306" cy="298" r="24"/>
<circle class="st0" cx="90" cy="146" r="80"/>
<circle class="st0" cx="275.9" cy="118" r="108"/>
<circle class="st4" cx="275.9" cy="118" r="68"/>
<circle class="st4" cx="90" cy="146" r="36"/>
<path class="st5" d="M64,330h174v96H64V330z"/>
<path class="st0" d="M282,370h48v48h-48V370z"/>
<path d="M498.9,231.4c-8.1-4.7-18-4.6-26,0.2l-60,35.3c-2,1.2-3.5,3-4.3,5.2H388v-22c0-18.8-15.2-34-34-34h-12.4
	c54.1-36.3,68.7-109.6,32.4-163.7S264.4-16.4,210.3,19.9c-24.8,16.6-42.4,41.9-49.2,71C130.8,51.5,74.3,44,34.9,74.3
	s-46.8,86.8-16.6,126.2c4.4,5.8,9.5,11,15.2,15.5C14.9,216.3,0,231.4,0,250v200c0,18.8,15.2,34,34,34h115c5.5,0,10-4.5,10-10
	s-4.5-10-10-10H34c-7.7,0-14-6.3-14-14V250c0-7.7,6.3-14,14-14h320c7.7,0,14,6.3,14,14v200c0,7.7-6.3,14-14,14H239
	c-5.5,0-10,4.5-10,10s4.5,10,10,10h115c18.8,0,34-15.2,34-34v-22h20.6c0.8,2.2,2.3,4,4.3,5.2l60,35.3c12.4,7.3,28.3,3.1,35.5-9.2
	c2.3-4,3.6-8.5,3.6-13.1V253.9C512.1,244.6,507.1,235.9,498.9,231.4L498.9,231.4z M275.9,20c54.1,0,98,43.9,98,98s-43.9,98-98,98
	s-98-43.9-98-98C178,63.9,221.8,20.1,275.9,20z M20,146c0-38.7,31.3-70,70-70s70,31.3,70,70s-31.3,70-70,70
	C51.4,216,20,184.6,20,146z M146.5,216c12.5-10.1,22-23.3,27.7-38.3c9,15.3,21.3,28.4,36.1,38.3H146.5z M388,292h20v116h-20V292z
	 M492,446.1c0,3.3-2.6,6-5.9,6c-1.1,0-2.1-0.3-3.1-0.8l-55-32.4V281.2l55-32.4c2.8-1.7,6.5-0.8,8.2,2.1c0.6,0.9,0.8,2,0.8,3.1V446.1
	z"/>
<path d="M306,332c18.8,0,34-15.2,34-34s-15.2-34-34-34s-34,15.2-34,34S287.2,332,306,332z M306,284c7.7,0,14,6.3,14,14
	s-6.3,14-14,14s-14-6.3-14-14S298.3,284,306,284z"/>
<path d="M194,464c-5.5,0-10,4.5-10,10c0,5.5,4.5,10,10,10s10-4.5,10-10c0-2.7-1.1-5.2-2.9-7.1C199.2,465.1,196.7,464,194,464z"/>
<path d="M275.9,196c43.1,0,78-34.9,78-78s-34.9-78-78-78s-78,34.9-78,78C198,161.1,232.9,196,275.9,196z M275.9,60c32,0,58,26,58,58
	s-26,58-58,58s-58-26-58-58C218,86,243.9,60,275.9,60z"/>
<path d="M275.9,100.7c5.5,0,10-4.5,10-10c0-5.5-4.5-10-10-10c-5.5,0-10,4.5-10,10c0,2.7,1.1,5.2,2.9,7.1
	C270.7,99.6,273.3,100.7,275.9,100.7z"/>
<path d="M275.9,155.3c5.5,0,10-4.5,10-10c0-5.5-4.5-10-10-10s-10,4.5-10,10c0,2.7,1.1,5.2,2.9,7.1
	C270.7,154.3,273.3,155.3,275.9,155.3z"/>
<path d="M303.3,128c5.5,0,10-4.5,10-10c0-5.5-4.5-10-10-10c-5.5,0-10,4.5-10,10c0,2.7,1.1,5.2,2.9,7.1
	C298.1,126.9,300.6,128,303.3,128z"/>
<path d="M248.6,128c5.5,0,10-4.5,10-10c0-5.5-4.5-10-10-10c-5.5,0-10,4.5-10,10c0,2.7,1.1,5.2,2.9,7.1
	C243.4,126.9,246,128,248.6,128z"/>
<path d="M90,192c25.4,0,46-20.6,46-46s-20.6-46-46-46s-46,20.6-46,46C44,171.4,64.6,192,90,192z M90,120c14.4,0,26,11.6,26,26
	s-11.6,26-26,26s-26-11.6-26-26S75.6,120,90,120z"/>
<path d="M248,426v-96c0-5.5-4.5-10-10-10H64c-5.5,0-10,4.5-10,10v96c0,5.5,4.5,10,10,10h174C243.5,436,248,431.5,248,426z M228,416
	H74v-76h154V416z"/>
<path d="M272,418c0,5.5,4.5,10,10,10h48c5.5,0,10-4.5,10-10v-48c0-5.5-4.5-10-10-10h-48c-5.5,0-10,4.5-10,10V418z M292,380h28v28
	h-28V380z"/>
</svg>
